<?xml version="1.0" standalone="no"?>
<!DOCTYPE svg PUBLIC "-//W3C//DTD SVG 20010904//EN"
 "http://www.w3.org/TR/2001/REC-SVG-20010904/DTD/svg10.dtd">
<svg version="1.0" xmlns="http://www.w3.org/2000/svg"
 width="777.000000pt" height="777.000000pt" viewBox="0 0 777.000000 777.000000"
 preserveAspectRatio="xMidYMid meet">
<metadata>
Created by potrace 1.14, written by Peter Selinger 2001-2017
</metadata>
<g transform="translate(0.000000,777.000000) scale(0.100000,-0.100000)"
fill="#000000" stroke="none">
<path d="M1020 7758 c0 -6 -3 -8 -7 -5 -3 4 -12 2 -20 -5 -7 -6 -16 -8 -19 -5
-3 3 -14 -2 -24 -11 -10 -9 -34 -28 -53 -42 -19 -14 -32 -30 -30 -37 3 -7 0
-13 -6 -13 -13 0 -55 -84 -56 -110 0 -8 -4 -21 -8 -27 -5 -8 -3 -13 4 -13 9 0
9 -3 0 -14 -9 -11 -9 -15 1 -19 11 -4 10 -6 0 -6 -8 -1 -10 -6 -5 -13 4 -7 8
-21 9 -30 1 -10 2 -19 4 -20 1 -2 3 -11 5 -21 2 -10 11 -27 19 -36 9 -10 16
-23 16 -29 0 -7 5 -12 12 -12 6 0 9 -3 5 -6 -3 -3 83 -94 191 -202 108 -109
196 -200 194 -204 -1 -5 2 -8 7 -8 13 0 241 -227 241 -240 0 -5 3 -9 8 -7 4 1
142 -133 307 -298 164 -165 303 -299 307 -297 4 1 7 -1 6 -6 -2 -4 72 -83 165
-175 92 -92 167 -172 167 -178 0 -5 4 -8 9 -5 5 4 23 -5 39 -19 16 -14 36 -25
44 -25 8 0 19 -5 25 -11 5 -5 29 -10 52 -11 23 0 44 -5 47 -10 4 -7 9 -7 13 0
5 9 55 21 103 25 9 1 15 4 12 8 -2 4 6 11 18 15 26 8 1668 1645 1668 1662 0 6
8 16 18 21 9 6 14 11 9 11 -4 0 -1 16 7 35 8 19 13 35 11 35 -3 0 0 12 6 27 7
20 6 28 -3 35 -9 5 -9 8 -1 8 6 0 10 8 8 18 -2 9 -4 17 -5 17 -1 0 -3 13 -5
28 -2 16 -10 36 -17 45 -11 13 -11 15 2 8 9 -4 8 -2 -2 7 -10 8 -15 16 -13 19
3 3 -6 17 -19 31 -13 14 -21 28 -18 31 3 3 0 6 -6 6 -7 0 -21 8 -31 18 -37 33
-49 41 -67 44 -11 2 -22 8 -26 13 -11 15 -3318 19 -3318 3z"/>
<path d="M5785 7747 c-27 -12 -51 -25 -53 -29 -2 -4 -8 -8 -12 -8 -5 0 -26
-17 -46 -37 -20 -21 -41 -37 -46 -35 -5 1 -7 -2 -4 -7 7 -11 -18 -33 -28 -24
-4 4 -4 -1 0 -11 5 -13 4 -17 -4 -12 -6 3 -16 -3 -22 -14 -6 -11 -15 -18 -21
-15 -5 4 -8 2 -7 -3 4 -11 -142 -158 -154 -154 -4 1 -7 -2 -6 -6 2 -5 -68 -80
-154 -166 -87 -86 -158 -162 -158 -168 0 -6 -3 -9 -6 -6 -3 3 -66 -56 -141
-131 -75 -75 -140 -135 -145 -134 -4 2 -7 -1 -5 -5 3 -11 -224 -238 -235 -234
-4 1 -7 -2 -6 -6 4 -11 -93 -108 -104 -104 -4 1 -7 -2 -6 -6 4 -11 -223 -238
-234 -234 -4 1 -7 -2 -6 -6 4 -10 -223 -238 -234 -234 -4 1 -7 -1 -6 -6 4 -10
-303 -318 -314 -314 -4 1 -7 -2 -6 -6 2 -5 -58 -70 -133 -145 -75 -75 -134
-138 -131 -141 3 -3 -1 -6 -10 -6 -30 0 -101 -109 -114 -176 -15 -74 -6 -139
29 -214 7 -13 914 -926 2016 -2029 1960 -1960 2069 -2066 2103 -2045 4 3 8 0
8 -7 0 -7 3 -10 6 -6 3 3 17 2 30 -3 16 -7 24 -6 24 1 0 8 4 8 14 0 8 -7 17
-8 20 -3 3 5 15 8 28 7 13 -1 29 2 36 8 6 5 12 6 12 2 0 -4 7 -2 15 5 8 7 15
9 15 6 0 -9 56 29 93 64 15 13 27 31 27 37 0 7 5 13 10 13 6 0 10 7 10 15 0 8
5 15 11 15 5 0 7 5 4 10 -3 6 -2 10 4 10 5 0 8 9 6 20 -2 11 1 22 6 26 13 8 9
115 -5 133 -9 12 -8 13 4 6 12 -7 13 -6 4 6 -6 8 -14 27 -18 42 -4 15 -11 25
-16 22 -5 -3 -7 1 -4 9 3 9 -3 20 -15 28 -12 7 -21 18 -21 25 0 7 -5 13 -11
13 -5 0 -7 4 -4 10 3 6 -1 7 -9 4 -11 -4 -16 0 -16 10 0 9 -7 16 -16 16 -8 0
-13 3 -11 7 5 10 -80 93 -87 85 -3 -3 -6 1 -6 10 0 8 -11 21 -25 28 -13 7 -22
16 -20 20 2 4 -9 17 -26 29 -16 12 -27 26 -24 31 3 6 -1 7 -9 4 -11 -4 -16 0
-16 11 0 9 -4 13 -10 10 -5 -3 -10 -1 -10 5 0 6 -18 28 -40 49 -22 21 -37 41
-33 45 4 4 0 4 -10 0 -10 -3 -17 -1 -17 5 0 14 -108 120 -115 113 -3 -3 -5 2
-5 11 0 10 -7 17 -15 17 -8 0 -14 3 -13 8 3 10 -79 91 -86 84 -3 -3 -6 0 -6 6
0 7 -13 25 -30 40 -16 16 -27 32 -23 36 4 4 0 4 -10 0 -10 -3 -17 -1 -17 5 0
6 -22 32 -50 58 -27 25 -47 50 -44 55 3 4 -2 5 -10 2 -11 -4 -16 0 -16 11 0 9
-4 13 -10 10 -5 -3 -10 -1 -10 6 0 12 -49 59 -62 59 -5 0 -7 3 -6 8 3 9 -82
92 -95 92 -4 0 -6 3 -4 8 6 9 -80 92 -87 84 -3 -3 -6 1 -6 10 0 8 -11 21 -25
28 -13 7 -22 17 -19 22 3 4 -5 12 -18 17 -13 6 -20 10 -15 10 11 1 -92 101
-104 101 -6 0 -8 7 -5 17 4 10 4 14 0 10 -4 -4 -24 11 -45 33 -21 22 -43 40
-49 40 -6 0 -8 5 -5 10 3 6 -2 10 -11 10 -10 0 -15 2 -12 5 6 7 -134 150 -144
147 -5 -1 -8 1 -8 6 0 13 -47 62 -54 55 -3 -3 -6 1 -6 10 0 10 -7 17 -16 17
-10 0 -14 5 -10 16 3 8 2 12 -4 9 -5 -3 -19 8 -31 24 -12 17 -25 28 -29 26 -4
-2 -13 7 -20 20 -7 14 -20 25 -28 25 -9 0 -13 3 -10 6 8 7 -75 92 -84 87 -5
-2 -8 3 -8 11 0 9 -7 16 -16 16 -8 0 -13 3 -11 8 2 4 -23 33 -55 64 -32 32
-58 54 -59 50 0 -4 -4 3 -10 16 -5 13 -13 21 -17 18 -5 -3 -15 6 -22 19 -7 14
-20 25 -28 25 -9 0 -12 6 -8 17 4 10 4 14 0 10 -4 -3 -24 11 -44 33 -20 22
-40 37 -44 33 -3 -3 -6 1 -6 10 0 10 -8 17 -17 17 -9 0 -14 2 -11 5 7 7 -54
70 -64 67 -5 -1 -8 1 -8 6 0 13 -47 62 -59 62 -7 0 -9 5 -6 10 3 6 -1 10 -10
10 -11 0 -15 5 -11 16 3 8 2 13 -3 10 -5 -3 -31 19 -57 48 -26 30 -51 53 -55
51 -4 -3 -9 5 -12 17 -4 12 -9 19 -13 15 -7 -7 -50 43 -47 55 2 4 -4 5 -12 2
-10 -4 -15 0 -15 11 0 9 -4 13 -10 10 -5 -3 -10 -2 -10 4 0 14 -87 100 -94 93
-3 -3 -6 2 -6 11 0 9 -7 17 -15 17 -8 0 -14 6 -12 13 1 6 -4 11 -10 10 -7 -2
-13 1 -13 6 0 14 -45 61 -59 61 -6 0 -10 6 -8 13 1 6 -4 11 -10 10 -7 -2 -13
2 -13 8 0 13 -50 59 -63 59 -5 0 -5 5 -2 10 3 6 -4 14 -17 19 -13 6 -20 10
-15 10 4 1 -19 27 -50 59 -32 33 -61 57 -65 55 -5 -2 -8 3 -8 11 0 9 -7 16
-16 16 -8 0 -13 3 -11 8 5 9 -80 92 -87 84 -3 -3 -6 1 -6 10 0 8 -11 21 -25
28 -13 7 -22 17 -19 22 3 4 -4 12 -16 16 -12 4 -22 12 -23 17 -1 15 -105 114
-111 107 -3 -3 -6 2 -6 11 0 9 -7 17 -17 17 -9 0 -13 3 -10 6 7 7 -42 54 -56
54 -4 0 -6 3 -5 8 3 10 -60 71 -67 64 -3 -3 -5 2 -5 12 0 9 -4 14 -10 11 -5
-3 -10 -1 -10 5 0 6 -18 28 -40 49 -22 21 -37 41 -33 45 4 4 0 4 -10 0 -12 -4
-17 -1 -17 10 0 8 -9 20 -20 26 -11 6 -20 17 -20 26 0 18 240 260 255 256 5
-2 7 -1 3 3 -9 9 14 35 25 28 4 -2 6 0 5 4 -4 13 434 449 447 445 5 -2 7 -1 3
3 -9 9 14 35 25 28 4 -2 6 0 5 4 -4 12 63 79 74 75 4 -1 7 1 6 6 -4 12 279
292 287 284 4 -4 5 -2 3 4 -4 12 62 80 75 76 4 -1 6 1 4 5 -7 11 19 34 28 25
4 -4 5 -2 3 4 -4 14 118 135 127 126 4 -4 5 -2 3 4 -4 13 223 240 236 236 6
-2 8 -1 4 3 -9 9 14 35 25 28 4 -2 6 0 5 4 -4 13 64 79 76 75 6 -2 8 -1 4 3
-8 8 192 211 204 207 5 -1 7 1 5 5 -7 11 19 34 28 25 4 -4 5 -2 3 4 -1 5 38
51 87 100 110 110 145 152 145 176 0 10 5 18 10 18 6 0 10 14 10 30 0 17 5 30
12 30 9 0 9 3 0 12 -8 8 -8 17 -1 31 9 15 8 18 -3 11 -11 -6 -11 -5 1 9 9 12
10 17 2 17 -7 0 -11 6 -10 13 3 26 -1 48 -9 43 -4 -3 -7 8 -6 25 1 16 -2 26
-7 23 -5 -3 -9 1 -9 9 0 7 -9 23 -19 34 -11 12 -17 24 -13 29 4 4 2 4 -4 1 -6
-3 -17 2 -26 11 -26 29 -56 51 -62 45 -3 -4 -6 0 -6 7 0 7 -3 10 -7 7 -3 -4
-17 0 -31 9 -17 11 -22 12 -16 3 6 -11 5 -12 -7 -3 -25 20 -129 15 -184 -9z"/>
<path d="M7418 7682 c-16 -2 -28 -8 -28 -13 0 -6 -4 -8 -9 -4 -12 7 -61 -15
-61 -27 0 -5 -4 -7 -9 -3 -5 3 -22 -6 -37 -20 -15 -14 -31 -25 -36 -25 -5 0
-8 -3 -6 -7 5 -10 -600 -612 -607 -605 -3 3 -5 0 -5 -5 0 -14 -478 -492 -485
-485 -3 3 -5 0 -5 -6 0 -15 -137 -152 -144 -144 -4 3 -6 0 -6 -6 0 -14 -268
-281 -275 -274 -3 3 -5 0 -5 -6 0 -15 -67 -82 -74 -74 -3 3 -6 1 -6 -5 0 -14
-107 -123 -114 -115 -3 3 -6 0 -6 -7 0 -14 -48 -61 -63 -61 -6 0 -8 -3 -5 -6
8 -7 -101 -114 -115 -114 -6 0 -8 -3 -5 -6 7 -7 -59 -74 -73 -74 -6 0 -8 -3
-6 -7 5 -10 -80 -93 -87 -85 -3 3 -6 1 -6 -5 0 -6 -46 -58 -103 -115 -96 -97
-114 -119 -115 -142 0 -5 -6 -12 -13 -16 -11 -7 -17 -28 -22 -85 -1 -11 -6
-23 -12 -27 -7 -5 -7 -8 0 -8 6 0 11 -14 11 -31 3 -63 28 -119 76 -171 10 -10
15 -18 11 -18 -4 0 7 -11 25 -23 17 -13 29 -26 26 -30 -3 -3 4 -8 15 -12 12
-3 19 -10 16 -15 -3 -5 4 -11 15 -15 11 -3 20 -13 20 -21 0 -8 4 -13 9 -9 5 3
12 -4 16 -15 3 -11 10 -20 14 -20 13 0 100 -88 93 -94 -3 -3 -1 -6 5 -6 13 0
83 -68 83 -81 0 -5 4 -9 9 -9 11 0 111 -99 111 -109 0 -4 14 -15 30 -24 17
-10 30 -25 30 -34 0 -9 3 -14 6 -10 7 6 28 -11 34 -28 1 -5 16 -19 31 -31 16
-11 27 -23 25 -25 -2 -2 11 -15 30 -29 18 -14 34 -31 34 -37 0 -7 7 -13 15
-13 8 0 15 -7 15 -15 0 -8 4 -15 9 -15 12 0 99 -89 93 -95 -3 -3 1 -5 9 -5 8
0 23 -13 34 -29 10 -16 22 -28 26 -25 4 2 10 -5 14 -16 4 -11 9 -19 13 -17 8
4 62 -49 57 -55 -2 -2 9 -12 26 -23 16 -11 29 -26 29 -33 0 -7 4 -11 9 -7 5 3
12 -4 16 -15 3 -11 12 -20 18 -20 7 0 21 -14 32 -30 11 -16 23 -30 26 -30 11
0 97 -88 91 -94 -3 -3 1 -6 9 -6 8 0 25 -16 39 -34 14 -19 26 -33 28 -31 5 5
112 -107 112 -118 0 -6 3 -8 6 -5 7 8 51 -35 47 -44 -2 -5 2 -8 9 -8 7 0 22
-13 33 -29 10 -16 22 -28 26 -25 4 2 11 -5 14 -17 4 -11 9 -18 12 -15 7 6 43
-32 43 -46 0 -4 4 -8 9 -8 10 0 65 -53 106 -101 14 -17 25 -28 25 -25 0 3 10
-5 23 -17 13 -12 22 -25 20 -29 -2 -5 2 -8 9 -9 7 0 30 -21 51 -45 20 -25 37
-43 37 -40 0 3 25 -20 55 -51 30 -31 55 -60 55 -64 0 -4 5 -11 12 -15 7 -5 8
-3 3 6 -5 9 -4 11 3 6 7 -4 12 -14 12 -22 0 -8 6 -14 13 -14 6 0 23 -16 37
-35 14 -19 33 -37 42 -40 9 -3 20 -15 23 -26 4 -10 9 -18 13 -16 10 5 42 -30
34 -37 -3 -3 1 -6 9 -6 8 0 30 -20 49 -45 19 -24 40 -45 45 -45 6 0 23 -14 39
-31 17 -16 36 -27 43 -25 7 3 13 -1 13 -10 0 -8 5 -12 10 -9 6 4 17 2 24 -4
13 -11 146 -21 146 -11 0 3 9 7 20 8 43 4 50 6 50 14 0 4 7 8 16 8 9 0 12 5 8
12 -4 7 -3 8 5 4 13 -8 94 58 83 68 -3 3 -1 6 5 6 10 0 38 49 35 63 -1 4 2 7
7 7 5 0 8 11 6 25 -1 14 2 28 6 31 5 3 9 1034 9 2333 0 1848 -3 2330 -12 2340
-10 10 -10 12 -1 7 7 -4 3 14 -9 44 -11 27 -25 50 -30 50 -5 0 -6 5 -3 10 3 6
2 10 -4 10 -5 0 -13 9 -16 20 -3 11 -13 20 -21 20 -8 0 -12 5 -9 10 3 6 0 10
-9 10 -8 0 -16 5 -18 10 -2 6 -13 12 -26 13 -12 0 -22 7 -22 14 0 7 -7 10 -17
6 -12 -5 -14 -3 -8 7 5 8 4 11 -2 7 -5 -3 -34 -3 -64 1 -30 4 -66 6 -81 4z"/>
<path d="M270 6910 c-7 -4 -19 -6 -27 -3 -7 3 -13 0 -13 -5 0 -6 -9 -9 -20 -7
-11 2 -26 -2 -34 -10 -7 -8 -16 -11 -20 -8 -3 4 -6 1 -6 -5 0 -7 -6 -12 -14
-12 -8 0 -16 -7 -20 -15 -3 -8 -13 -15 -22 -15 -10 0 -15 -3 -11 -6 3 -3 -3
-16 -14 -28 -47 -49 -63 -98 -62 -186 2 -98 13 -137 50 -178 7 -7 13 -18 13
-23 0 -5 8 -9 17 -9 9 0 14 -3 11 -6 -7 -7 39 -54 53 -54 6 0 7 -4 4 -10 -3
-5 1 -10 10 -10 9 0 14 -3 12 -7 -2 -5 9 -20 24 -35 16 -15 29 -24 30 -20 0 4
4 -3 10 -16 5 -13 13 -20 19 -17 5 3 10 -1 10 -9 0 -9 8 -16 17 -16 9 0 14 -2
11 -5 -6 -7 81 -95 94 -95 5 0 7 -3 5 -7 -6 -10 19 -34 27 -26 3 4 6 -1 6 -10
0 -9 7 -17 17 -17 9 0 14 -3 11 -6 -7 -7 39 -54 53 -54 6 0 7 -4 4 -10 -3 -5
1 -10 10 -10 11 0 15 -5 11 -16 -3 -8 -2 -13 3 -10 5 3 28 -17 52 -44 24 -27
50 -50 58 -50 8 0 12 -3 9 -6 -8 -7 40 -54 54 -54 6 0 9 -3 5 -6 -8 -8 16 -33
26 -27 4 2 7 -3 7 -11 0 -9 8 -16 17 -16 9 0 14 -3 11 -6 -8 -7 40 -54 54 -54
6 0 9 -3 5 -6 -7 -7 41 -54 56 -54 6 0 8 -3 4 -6 -7 -8 38 -54 53 -54 6 0 9
-3 7 -7 -6 -10 19 -34 27 -26 3 4 6 2 6 -3 0 -15 117 -134 124 -127 3 4 6 2 6
-4 0 -14 57 -72 64 -65 3 3 6 0 6 -7 0 -16 26 -42 34 -34 3 4 6 -1 6 -10 0 -9
7 -17 17 -17 9 0 13 -3 10 -6 -4 -4 9 -19 29 -35 19 -15 34 -29 33 -31 -4 -6
81 -85 86 -80 3 3 5 0 5 -6 0 -14 47 -62 54 -54 3 3 6 -2 6 -11 0 -9 7 -17 17
-17 9 0 13 -3 10 -6 -7 -7 42 -54 56 -54 4 0 6 -3 5 -7 -3 -11 60 -72 67 -65
3 3 5 -2 5 -11 0 -9 7 -17 16 -17 8 0 12 -5 9 -11 -4 -6 2 -13 14 -16 12 -3
21 -10 21 -15 0 -13 47 -58 54 -51 3 4 6 -1 6 -11 0 -9 5 -14 10 -11 6 3 10 1
10 -5 0 -13 19 -34 68 -72 19 -16 31 -28 27 -28 -5 0 11 -18 35 -40 24 -22 47
-40 52 -40 5 0 6 -4 3 -10 -3 -5 1 -10 10 -10 9 0 13 -5 10 -11 -4 -6 2 -13
14 -16 12 -3 21 -10 21 -15 0 -13 47 -58 54 -51 3 4 6 0 6 -9 0 -8 11 -21 25
-28 13 -7 23 -16 22 -19 -3 -8 85 -91 97 -91 5 0 7 -3 4 -6 -7 -6 221 -234
234 -234 5 0 7 -3 5 -7 -6 -10 19 -34 27 -26 3 4 6 1 6 -5 0 -14 59 -72 73
-72 6 0 8 -3 4 -6 -6 -6 7 -20 66 -71 21 -18 35 -33 31 -33 -4 0 17 -22 47
-50 30 -27 58 -50 62 -50 5 0 6 -3 4 -7 -5 -10 121 -132 128 -125 3 3 5 -2 5
-11 0 -9 7 -17 16 -17 8 0 13 -3 11 -7 -6 -10 19 -34 27 -26 3 4 6 1 6 -6 0
-16 46 -62 54 -54 3 4 6 -1 6 -11 0 -9 5 -14 10 -11 5 3 10 1 10 -5 0 -12 6
-18 63 -67 20 -18 38 -36 40 -40 1 -5 5 -7 10 -6 4 2 7 -1 7 -7 0 -13 48 -59
54 -52 3 3 6 -2 6 -12 0 -9 5 -14 10 -11 5 3 10 1 10 -5 0 -15 26 -41 34 -33
3 4 6 1 6 -5 0 -14 47 -62 54 -54 3 3 6 -2 6 -12 0 -9 4 -14 10 -11 5 3 10 1
10 -4 0 -14 88 -100 95 -93 3 3 5 -2 5 -11 0 -9 8 -17 17 -17 9 0 13 -3 10 -6
-7 -7 42 -54 55 -54 5 0 7 -4 5 -9 -1 -5 15 -22 36 -39 21 -17 38 -33 38 -36
0 -10 68 -73 74 -68 3 3 5 -2 5 -11 0 -9 7 -17 16 -17 8 0 13 -3 11 -7 -6 -11
60 -73 68 -65 4 4 5 0 3 -8 -5 -22 -111 -128 -122 -122 -5 3 -6 0 -3 -5 8 -13
-17 -36 -27 -25 -4 4 -6 2 -4 -3 4 -12 -262 -281 -274 -278 -4 2 -7 -1 -5 -5
1 -5 -33 -43 -75 -85 -43 -43 -78 -83 -78 -90 0 -9 -3 -8 -9 1 -6 10 -10 8
-14 -8 -3 -13 -10 -19 -17 -15 -6 3 -9 3 -8 -2 4 -11 -103 -119 -114 -116 -4
2 -7 0 -6 -5 4 -10 -62 -78 -73 -75 -5 2 -8 -1 -6 -5 1 -5 -16 -26 -38 -48
-22 -21 -39 -42 -38 -46 2 -5 0 -7 -5 -6 -9 3 -157 -145 -154 -154 1 -5 -2 -8
-8 -8 -5 0 -56 -47 -114 -105 -57 -58 -110 -105 -118 -105 -10 0 -9 -3 2 -10
10 -6 11 -10 3 -10 -7 0 -47 -35 -90 -77 -42 -43 -80 -77 -85 -76 -4 2 -7 -1
-5 -5 3 -11 -144 -158 -155 -155 -4 2 -7 -1 -5 -5 3 -12 -106 -118 -118 -114
-5 2 -7 0 -3 -4 11 -10 -12 -35 -26 -27 -6 3 -8 3 -4 -2 8 -8 -152 -171 -164
-168 -4 2 -7 -1 -5 -5 3 -11 -105 -118 -116 -114 -5 1 -6 -1 -3 -6 6 -10 -45
-58 -57 -54 -5 1 -6 -2 -3 -7 3 -5 -1 -11 -9 -15 -8 -3 -15 -12 -15 -21 0 -8
-4 -15 -10 -15 -17 0 -51 -89 -53 -137 -1 -13 -5 -23 -9 -23 -4 0 -8 -5 -8
-11 0 -5 3 -8 8 -6 4 3 8 -11 9 -31 1 -33 8 -73 13 -79 2 -2 3 -7 4 -13 0 -5
9 -19 19 -30 9 -11 17 -23 17 -27 0 -12 84 -83 98 -83 7 0 10 -5 6 -12 -4 -7
-3 -8 5 -4 6 4 18 2 26 -4 8 -7 15 -9 15 -5 0 4 8 1 17 -6 15 -12 16 -12 8 1
-7 13 -6 13 7 2 17 -14 128 -15 128 -1 0 4 8 6 18 4 9 -1 26 5 36 14 16 13 18
13 11 1 -4 -8 3 -5 17 8 13 12 27 22 31 22 3 0 66 60 139 132 73 73 137 131
143 130 5 -2 7 -1 3 3 -9 9 506 525 524 525 9 0 9 3 -2 10 -13 8 -12 10 3 10
10 0 22 10 27 23 5 12 9 19 9 15 1 -4 83 74 183 175 101 100 182 185 180 190
-1 4 3 7 8 7 6 0 49 39 97 88 47 48 90 86 95 84 5 -1 8 1 5 5 -6 11 199 213
208 205 4 -4 5 -2 3 4 -2 6 32 46 76 88 43 42 74 76 70 76 -5 0 3 8 16 17 14
10 28 17 32 15 5 -1 7 1 5 6 -1 4 13 21 30 38 18 17 33 37 33 45 0 11 2 11 10
-1 8 -12 10 -12 10 -1 0 8 42 55 93 105 50 49 91 94 90 98 -2 4 3 8 11 8 8 0
17 7 20 16 3 8 11 12 16 9 6 -4 9 -3 8 2 -2 4 12 22 29 39 18 17 33 37 33 45
0 11 2 11 10 -1 8 -12 10 -12 10 -1 0 7 43 56 96 109 102 101 144 156 147 191
1 11 5 21 9 21 3 0 7 8 7 18 1 9 2 33 4 52 3 42 -8 90 -33 147 -13 28 -107
130 -291 315 -150 150 -276 272 -281 271 -4 -2 -8 2 -8 7 0 14 -1426 1440
-1439 1440 -6 0 -10 4 -9 8 4 11 -104 118 -115 114 -5 -1 -6 1 -4 5 6 11 -380
393 -388 385 -4 -4 -5 -2 -3 4 4 14 -213 230 -226 226 -6 -2 -8 -1 -4 3 9 10
-1271 1287 -1282 1280 -6 -4 -10 -1 -10 5 0 6 -4 8 -10 5 -5 -3 -10 -2 -10 4
0 13 -35 24 -86 26 -23 1 -45 5 -51 8 -5 3 -15 2 -23 -3z"/>
<path d="M206 5237 c-30 -10 -66 -29 -80 -41 -13 -13 -26 -23 -28 -21 -2 1
-12 -7 -23 -18 -12 -11 -14 -17 -5 -13 9 5 8 2 -2 -7 -10 -8 -18 -19 -18 -26
0 -6 -4 -11 -10 -11 -5 0 -10 -9 -10 -20 0 -11 -4 -20 -8 -20 -4 0 -10 -10
-12 -22 -4 -22 -5 -4705 -1 -4741 1 -9 6 -17 10 -17 9 0 24 -38 22 -53 -1 -4
6 -7 14 -7 8 0 14 -3 14 -7 -3 -21 3 -33 17 -33 8 0 13 -4 10 -8 -3 -5 7 -15
22 -23 15 -8 29 -16 32 -19 3 -3 14 -12 24 -20 14 -11 18 -11 12 -2 -7 12 -5
12 15 1 13 -7 32 -14 42 -15 9 -1 19 -3 22 -4 12 -6 31 -6 46 1 9 5 21 3 26
-2 8 -8 13 -8 17 0 4 5 13 8 21 4 8 -3 15 0 15 6 0 6 3 10 8 9 15 -4 58 16 74
35 10 11 18 16 18 11 0 -4 42 34 92 86 51 52 94 94 96 92 1 -1 1 -1 0 1 -5 5
108 113 115 110 4 -2 7 3 7 11 0 9 7 16 15 16 8 0 15 7 15 16 0 8 5 12 10 9 6
-3 10 -2 10 4 0 12 278 291 291 291 5 0 9 7 9 16 0 8 5 12 10 9 5 -3 10 -2 10
4 0 12 248 261 261 261 5 0 8 3 7 8 -3 9 216 227 236 235 9 4 19 14 22 22 9
21 71 85 84 85 5 0 10 7 10 16 0 8 5 12 10 9 6 -3 10 -2 10 4 0 13 117 131
130 131 5 0 9 6 7 12 -1 7 4 12 11 11 6 -2 12 1 12 6 0 12 223 236 233 233 4
-1 7 2 7 7 0 12 409 421 421 421 5 0 8 6 6 13 -1 6 4 11 11 10 6 -2 12 1 12 5
0 5 43 53 95 106 53 53 93 101 90 106 -3 4 -1 10 5 12 6 2 12 13 15 26 2 12 7
28 12 34 10 18 12 148 1 154 -4 3 -8 16 -8 30 0 14 -4 22 -10 19 -5 -3 -10 3
-10 13 0 11 -26 47 -58 81 -32 34 -56 61 -53 61 3 0 -6 8 -22 18 -15 10 -24
22 -20 25 3 4 -1 7 -10 7 -9 0 -17 3 -17 8 0 8 -42 52 -79 82 -13 11 -21 20
-18 20 4 0 -12 17 -35 38 -59 53 -118 114 -118 122 0 4 -11 13 -25 20 -14 7
-25 20 -25 27 0 8 -5 11 -10 8 -6 -3 -10 -3 -10 2 0 10 -51 63 -78 82 -12 8
-19 17 -17 21 2 3 -10 15 -26 25 -16 11 -29 26 -29 33 0 6 -7 12 -15 12 -8 0
-15 6 -15 14 0 8 -9 18 -20 21 -11 3 -20 10 -20 14 0 5 -20 29 -45 53 -25 25
-45 43 -45 40 0 -2 -13 12 -30 33 -16 21 -30 34 -30 30 0 -5 -9 2 -20 15 -11
13 -20 26 -20 29 0 3 -14 15 -30 26 -16 11 -30 26 -30 33 0 6 -7 12 -15 12 -8
0 -15 6 -15 14 0 8 -9 18 -20 21 -11 3 -20 12 -20 19 0 7 -11 18 -24 25 -13 7
-30 24 -37 37 -7 13 -17 24 -23 24 -6 0 -22 16 -36 34 -14 19 -27 32 -29 30
-5 -4 -41 36 -41 46 0 4 -11 13 -25 20 -14 7 -25 17 -25 21 0 4 -16 23 -35 42
-19 19 -35 33 -35 29 0 -3 -9 6 -20 19 -40 48 -91 99 -99 99 -4 0 -14 11 -21
25 -7 14 -16 25 -20 25 -9 0 -100 90 -91 90 3 1 -5 7 -19 15 -14 8 -21 14 -16
15 5 0 -7 13 -27 29 -20 15 -34 31 -30 35 3 3 0 6 -9 6 -8 0 -21 11 -28 25 -7
14 -16 23 -18 20 -5 -5 -42 34 -42 45 0 4 -11 13 -25 20 -14 7 -25 19 -25 26
0 7 -9 15 -19 19 -11 3 -23 15 -26 26 -4 10 -13 19 -21 19 -8 0 -14 6 -14 14
0 8 -9 18 -20 21 -11 4 -18 11 -15 16 4 5 -1 9 -9 9 -8 0 -23 14 -33 30 -9 17
-22 30 -28 30 -7 0 -18 11 -25 25 -7 13 -20 27 -29 31 -9 3 -37 30 -63 60 -27
30 -48 52 -48 50 0 -3 -11 6 -25 20 -14 14 -25 28 -25 33 0 4 -11 13 -24 19
-13 6 -27 20 -31 32 -3 11 -9 19 -13 17 -10 -6 -61 51 -53 59 3 4 1 4 -6 0 -6
-3 -14 -2 -18 4 -3 5 -15 10 -26 10 -11 0 -18 4 -15 9 6 9 -51 20 -121 24 -23
1 -67 -6 -97 -16z m519 -1133 c58 -59 105 -111 105 -116 0 -5 5 -6 10 -3 6 3
10 -1 10 -9 0 -9 7 -16 16 -16 8 0 13 -3 11 -7 -3 -5 13 -21 34 -38 21 -16 38
-36 39 -44 0 -8 2 -12 5 -9 7 7 123 -105 118 -114 -2 -5 0 -8 5 -8 14 0 72
-56 72 -69 0 -6 7 -11 16 -11 8 0 12 -4 9 -10 -3 -5 -2 -10 3 -10 13 0 121
-108 114 -114 -3 -4 -1 -6 5 -6 14 0 173 -158 173 -171 0 -6 5 -7 10 -4 6 3
10 -1 10 -9 0 -9 4 -16 10 -16 12 0 130 -118 130 -130 0 -6 3 -9 8 -7 4 1 8
-2 9 -7 1 -5 13 -16 27 -26 15 -9 23 -20 19 -23 -3 -4 -2 -7 4 -7 14 0 133
-119 133 -133 0 -6 2 -8 6 -5 7 7 154 -141 154 -155 0 -6 3 -8 6 -4 7 7 42
-26 37 -35 -2 -5 3 -8 11 -8 8 0 23 -13 32 -29 10 -17 21 -28 26 -25 4 3 8 -2
8 -10 0 -9 6 -16 14 -16 8 0 18 -5 22 -12 5 -7 3 -8 -7 -3 -12 7 -12 6 -1 -7
11 -14 9 -19 -10 -32 -12 -9 -18 -16 -13 -16 5 0 -6 -11 -25 -25 -19 -14 -30
-25 -26 -25 5 0 -4 -10 -20 -22 -38 -29 -57 -48 -49 -48 3 0 0 -6 -7 -14 -7
-8 -16 -12 -20 -9 -5 2 -8 -3 -8 -12 0 -9 -3 -14 -7 -12 -5 2 -16 -4 -25 -15
-10 -10 -15 -18 -10 -18 4 0 -6 -9 -23 -20 -16 -11 -26 -20 -21 -20 6 0 -5
-11 -24 -25 -19 -14 -30 -25 -24 -25 5 -1 -2 -7 -16 -15 -14 -8 -21 -14 -16
-15 6 0 -5 -11 -24 -25 -19 -14 -30 -25 -26 -25 5 0 -4 -10 -20 -22 -39 -29
-53 -43 -34 -34 8 4 4 -2 -10 -13 -14 -11 -28 -21 -32 -21 -5 0 -8 -7 -8 -16
0 -8 -4 -12 -10 -9 -5 3 -10 2 -10 -4 0 -5 -14 -23 -30 -39 -17 -17 -30 -28
-30 -24 0 3 -11 -9 -25 -28 -14 -19 -25 -30 -25 -25 0 5 -11 -5 -23 -23 -13
-17 -26 -30 -28 -28 -2 2 -10 -2 -17 -10 -7 -8 -9 -14 -5 -14 4 0 -5 -9 -22
-20 -16 -11 -26 -20 -21 -20 6 0 -5 -11 -24 -25 -19 -14 -31 -25 -27 -25 4 0
2 -6 -5 -14 -7 -8 -15 -13 -18 -12 -3 1 -15 -8 -27 -21 -12 -13 -19 -23 -15
-23 4 0 -6 -9 -23 -20 -16 -11 -26 -20 -21 -20 6 0 -5 -11 -24 -25 -19 -14
-30 -25 -24 -25 5 -1 -2 -7 -16 -15 -14 -8 -21 -14 -16 -15 6 0 -5 -11 -24
-25 -19 -14 -30 -25 -26 -25 5 0 -4 -10 -20 -22 -38 -29 -57 -48 -49 -48 3 0
0 -6 -7 -14 -7 -8 -16 -12 -20 -9 -5 2 -8 -4 -8 -13 0 -10 -3 -15 -6 -11 -4 3
-22 -12 -40 -34 -19 -23 -34 -37 -34 -33 0 4 -11 -7 -25 -26 -14 -19 -25 -30
-25 -25 0 5 -11 -6 -25 -25 -14 -19 -25 -31 -25 -27 0 4 -6 2 -14 -5 -8 -7
-12 -15 -10 -17 2 -3 -8 -13 -23 -23 -16 -10 -24 -18 -19 -18 6 0 -4 -11 -22
-23 -17 -13 -30 -26 -28 -28 2 -2 -2 -10 -10 -17 -8 -7 -14 -10 -14 -7 0 3
-14 -10 -31 -30 -18 -20 -34 -33 -37 -30 -8 8 -8 3075 0 3075 4 0 55 -48 113
-106z"/>
<path d="M5060 2170 c0 -4 -11 -5 -25 -2 -15 2 -25 0 -25 -7 0 -7 -4 -10 -9
-7 -18 12 -77 -30 -164 -115 -50 -49 -94 -89 -99 -89 -4 0 -8 -4 -8 -10 0 -21
-4 -25 -32 -43 -16 -9 -31 -24 -34 -32 -4 -8 -10 -12 -15 -9 -5 3 -9 1 -9 -4
0 -13 -126 -142 -138 -142 -5 0 -12 -9 -15 -21 -3 -12 -10 -18 -16 -14 -6 3
-11 1 -11 -6 0 -13 -78 -89 -92 -89 -4 0 -7 -6 -5 -12 1 -7 -4 -12 -10 -11 -7
2 -13 -4 -13 -12 0 -8 -8 -15 -17 -15 -9 0 -14 -2 -11 -5 7 -7 -69 -85 -82
-85 -5 0 -10 -5 -10 -10 0 -13 -68 -80 -81 -80 -5 0 -9 -4 -9 -10 0 -5 -9 -19
-20 -30 -11 -11 -20 -17 -20 -13 0 4 -11 -9 -25 -30 -14 -20 -31 -37 -38 -37
-7 0 -21 -13 -32 -29 -10 -16 -23 -27 -27 -25 -4 3 -8 -2 -8 -11 0 -10 -5 -13
-12 -9 -8 5 -9 2 -5 -9 3 -9 3 -16 -1 -14 -4 1 -27 -17 -50 -40 -23 -23 -42
-39 -42 -37 0 3 -7 -1 -15 -10 -8 -8 -15 -19 -15 -25 0 -6 -17 -22 -37 -36
-21 -14 -34 -25 -30 -25 4 0 -2 -9 -13 -20 -11 -11 -24 -20 -30 -20 -5 0 -10
-4 -10 -8 0 -13 -108 -121 -114 -114 -4 3 -6 0 -6 -7 0 -13 -67 -81 -81 -81
-5 0 -9 -4 -9 -9 0 -13 -98 -111 -110 -111 -6 0 -10 -4 -10 -8 0 -5 -19 -29
-42 -53 -24 -24 -42 -47 -40 -51 1 -5 -3 -8 -9 -8 -5 0 -7 -4 -4 -10 3 -5 -1
-10 -9 -10 -9 0 -15 -3 -15 -7 3 -21 -2 -44 -9 -40 -8 6 -11 -29 -11 -112 0
-51 32 -151 51 -159 4 -2 8 -11 8 -20 0 -8 2 -13 5 -10 3 3 23 -11 43 -31 20
-20 46 -38 57 -39 11 -2 21 -8 23 -12 2 -5 9 -7 17 -4 7 3 16 1 20 -5 9 -15
3285 -15 3285 0 0 5 4 8 8 5 14 -8 90 32 122 64 16 17 30 27 30 23 0 -4 13 18
29 50 15 31 30 55 32 53 2 -3 4 16 4 41 0 24 3 47 6 49 4 2 3 21 -1 41 -5 20
-8 39 -7 42 3 14 -43 101 -54 101 -7 0 -10 3 -6 6 3 3 -21 32 -54 65 -32 32
-59 63 -59 69 0 5 -3 9 -7 9 -19 -3 -33 2 -31 11 2 5 -21 31 -49 58 -29 27
-50 52 -46 56 3 3 1 6 -6 6 -6 0 -48 37 -93 83 -44 45 -84 81 -89 79 -8 -2
-13 12 -10 30 0 5 -4 8 -10 8 -6 0 -36 26 -67 58 -31 31 -60 56 -64 54 -4 -1
-7 2 -6 6 2 4 -34 45 -79 89 -46 45 -83 87 -83 93 0 5 -3 9 -7 9 -19 -3 -33 2
-30 11 1 5 -22 32 -52 60 -30 27 -50 50 -45 51 5 0 -1 4 -14 10 -13 5 -20 13
-17 19 3 5 1 10 -5 10 -7 0 -41 30 -77 68 -35 37 -69 66 -74 65 -8 -3 -13 11
-10 30 0 4 -3 7 -9 7 -14 0 -100 87 -100 101 0 7 -3 10 -6 6 -4 -3 -29 18 -57
48 -27 30 -55 51 -61 48 -6 -3 -8 -2 -3 2 4 5 -21 36 -55 69 -35 33 -61 65
-60 71 2 5 1 7 -3 3 -8 -8 -161 143 -157 155 1 5 -2 6 -8 2 -5 -3 -10 -1 -10
4 0 6 -7 11 -15 11 -8 0 -15 5 -15 10 0 6 -9 10 -21 10 -13 0 -18 4 -13 12 5
8 0 9 -14 6 -12 -4 -22 -3 -22 1 0 9 -3 9 -77 15 -29 2 -53 1 -53 -4z m83
-772 c17 -16 35 -28 39 -28 5 0 6 -5 3 -10 -3 -6 4 -14 17 -19 13 -6 19 -10
15 -10 -4 -1 8 -15 28 -32 19 -17 32 -36 28 -42 -3 -5 -1 -7 5 -3 6 3 17 -3
25 -14 7 -11 17 -17 20 -13 4 3 7 2 7 -4 0 -14 117 -133 124 -126 3 4 6 2 6
-4 0 -15 117 -133 124 -126 3 4 6 2 6 -4 0 -15 61 -79 72 -75 4 1 8 -5 8 -13
0 -8 7 -15 16 -15 8 0 14 -3 12 -7 -2 -5 20 -31 49 -60 29 -28 53 -48 53 -45
0 4 8 -5 18 -21 10 -15 22 -24 25 -20 4 3 7 1 7 -6 0 -13 25 -42 31 -37 2 2
14 -10 27 -25 16 -20 19 -29 10 -30 -75 -6 -1648 -2 -1648 4 0 4 7 10 15 13 8
4 12 10 9 15 -3 5 3 9 12 9 10 0 15 3 11 6 -6 7 15 34 23 30 3 -2 13 5 23 16
9 10 14 18 10 18 -5 0 5 9 20 19 16 10 28 21 28 25 -1 3 2 6 5 5 4 0 15 12 25
28 10 15 19 25 19 21 0 -4 11 3 23 15 13 12 23 25 23 29 -1 3 4 7 9 9 6 2 25
21 43 42 17 21 32 36 32 32 0 -4 15 11 33 33 17 23 35 41 40 41 10 1 49 41 40
41 -5 0 5 9 20 19 16 10 28 21 28 25 -1 3 2 7 7 8 4 1 22 20 40 41 17 21 32
37 32 34 0 -3 13 6 28 21 16 15 28 30 28 34 -1 3 3 6 8 6 5 0 17 13 27 29 10
15 19 25 19 21 0 -4 11 3 23 15 13 12 23 24 23 27 -1 3 2 5 5 5 4 0 22 19 40
42 19 23 40 42 47 42 6 1 12 7 13 14 0 7 3 6 6 -3 3 -8 20 -27 36 -42z"/>
</g>
</svg>
