<?xml version="1.0" standalone="no"?>
<!DOCTYPE svg PUBLIC "-//W3C//DTD SVG 20010904//EN"
 "http://www.w3.org/TR/2001/REC-SVG-20010904/DTD/svg10.dtd">
<svg version="1.0" xmlns="http://www.w3.org/2000/svg"
 width="512.000000pt" height="512.000000pt" viewBox="0 0 512.000000 512.000000"
 preserveAspectRatio="xMidYMid meet">
<metadata>
Created by potrace 1.14, written by Peter Selinger 2001-2017
</metadata>
<g transform="translate(0.000000,512.000000) scale(0.100000,-0.100000)"
fill="#000000" stroke="none">
<path d="M650 5104 c-105 -45 -153 -171 -102 -270 25 -49 1077 -1102 1126
-1128 44 -22 119 -24 166 -3 22 10 243 224 586 569 608 610 579 575 561 686
-11 67 -70 134 -132 151 -28 8 -358 11 -1105 11 -926 -1 -1070 -3 -1100 -16z"/>
<path d="M3805 5101 c-27 -13 -308 -287 -852 -832 -736 -738 -812 -818 -819
-854 -11 -55 -7 -100 11 -139 20 -42 2643 -2665 2689 -2689 42 -22 119 -24
166 -4 97 42 145 163 102 258 -15 34 -306 331 -1257 1282 l-1237 1237 721 722
c444 444 728 735 736 755 42 101 5 211 -89 260 -47 25 -125 27 -171 4z"/>
<path d="M4840 5045 c-45 -20 -1574 -1545 -1601 -1597 -11 -23 -19 -57 -19
-88 0 -31 8 -65 19 -88 30 -56 1557 -1578 1603 -1597 89 -37 186 -7 243 73
l30 44 3 1556 2 1557 -22 45 c-46 90 -167 135 -258 95z"/>
<path d="M148 4547 c-51 -12 -113 -69 -133 -121 -19 -50 -16 -116 8 -163 8
-15 572 -585 1252 -1265 l1238 -1238 -726 -726 c-744 -743 -744 -744 -751
-827 -6 -67 42 -149 105 -182 45 -24 117 -29 163 -11 32 13 208 182 853 828
486 487 816 825 823 843 17 46 14 121 -7 160 -23 46 -2646 2669 -2688 2689
-41 20 -91 24 -137 13z"/>
<path d="M135 3449 c-59 -22 -92 -52 -116 -104 -18 -38 -18 -106 -19 -1575 0
-1044 3 -1547 11 -1573 21 -75 106 -139 186 -139 85 0 70 -13 886 801 428 427
786 792 796 811 22 44 26 108 11 158 -10 29 -171 196 -789 815 -427 428 -788
785 -804 793 -52 28 -110 33 -162 13z m775 -2199 l-510 -510 0 1020 0 1020
510 -510 510 -510 -510 -510z"/>
<path d="M3310 1427 c-43 -8 -75 -39 -598 -560 -355 -354 -559 -565 -568 -587
-20 -47 -20 -120 1 -164 22 -47 75 -92 122 -105 25 -7 390 -11 1101 -11 1152
0 1101 -2 1160 53 60 56 81 159 47 231 -15 31 -1061 1087 -1112 1121 -32 22
-102 32 -153 22z m469 -893 l134 -134 -553 0 -552 0 276 276 276 277 143 -143
c78 -79 202 -203 276 -276z"/>
</g>
</svg>
