<?xml version="1.0" standalone="no"?>
<!DOCTYPE svg PUBLIC "-//W3C//DTD SVG 20010904//EN"
 "http://www.w3.org/TR/2001/REC-SVG-20010904/DTD/svg10.dtd">
<svg version="1.0" xmlns="http://www.w3.org/2000/svg"
 width="512.000000pt" height="512.000000pt" viewBox="0 0 512.000000 512.000000"
 preserveAspectRatio="xMidYMid meet">
<metadata>
Created by potrace 1.14, written by Peter Selinger 2001-2017
</metadata>
<g transform="translate(0.000000,512.000000) scale(0.100000,-0.100000)"
fill="#000000" stroke="none">
<path d="M187 5105 c-104 -37 -155 -158 -112 -263 11 -26 247 -268 788 -810
425 -425 785 -780 800 -788 60 -32 129 -34 185 -5 47 25 1574 1554 1597 1600
42 83 -4 213 -90 256 -39 20 -62 20 -1585 22 -1290 2 -1551 0 -1583 -12z
m2583 -390 c0 -3 -227 -233 -505 -510 l-505 -505 -510 510 -510 510 1015 0
c558 0 1015 -2 1015 -5z"/>
<path d="M4275 5102 c-28 -13 -426 -405 -1278 -1257 l-1237 -1237 -726 725
c-500 501 -735 729 -757 736 -85 28 -158 14 -214 -41 -62 -60 -79 -160 -39
-235 20 -40 1608 -1624 1648 -1645 46 -24 98 -28 149 -11 38 13 220 191 1372
1341 871 870 1333 1339 1343 1362 17 40 20 113 6 151 -14 37 -60 87 -95 105
-48 25 -125 28 -172 6z"/>
<path d="M4870 4587 c-43 -8 -75 -39 -597 -560 -315 -314 -560 -566 -569 -586
-21 -45 -21 -118 0 -163 22 -45 1082 -1106 1132 -1132 45 -24 119 -24 168 -1
47 22 92 75 105 122 8 26 11 387 11 1101 0 1163 3 1102 -58 1165 -49 51 -114
70 -192 54z m-150 -1233 l0 -546 -139 138 c-76 77 -200 201 -276 276 l-137
138 268 270 c148 148 272 270 277 270 4 0 7 -246 7 -546z"/>
<path d="M155 2988 c-52 -11 -113 -60 -136 -112 -18 -39 -19 -92 -19 -1106 0
-713 4 -1077 11 -1103 13 -47 58 -100 105 -122 48 -23 123 -21 171 4 51 26
1118 1096 1133 1136 17 46 14 121 -7 161 -17 33 -1033 1059 -1099 1110 -38 29
-105 43 -159 32z m528 -1498 c-149 -148 -273 -270 -277 -270 -3 0 -6 246 -6
546 l0 547 276 -276 277 -277 -270 -270z"/>
<path d="M3310 2987 c-43 -8 -103 -66 -1387 -1350 -1285 -1286 -1342 -1344
-1350 -1387 -32 -164 122 -298 268 -233 34 15 330 306 1282 1258 l1237 1238
726 -727 c672 -672 730 -727 775 -740 96 -29 193 13 239 103 20 39 23 111 5
156 -12 33 -186 212 -820 846 -442 442 -819 812 -838 821 -42 22 -80 27 -137
15z"/>
<path d="M3345 1902 c-80 -14 -84 -19 -869 -801 -811 -808 -817 -815 -818
-899 -1 -84 62 -170 139 -191 26 -8 529 -11 1571 -11 1664 0 1570 -3 1631 53
56 52 76 151 46 225 -11 26 -247 268 -788 810 -425 425 -783 779 -797 787 -35
18 -91 32 -115 27z m1025 -1497 c0 -3 -457 -5 -1015 -5 l-1015 0 510 510 510
510 505 -505 c278 -278 505 -507 505 -510z"/>
</g>
</svg>
